<svg width="28" height="32" viewBox="0 0 28 32" fill="none" xmlns="http://www.w3.org/2000/svg">
<g filter="url(#filter0_d_18_3434)">
<path fill-rule="evenodd" clip-rule="evenodd" d="M11.6451 8.38989L11.6598 11.186H15.9741C16.7403 11.186 17.3613 10.6066 17.3575 9.89414L17.3564 9.68172C17.3527 8.96911 16.7257 8.38989 15.9593 8.38989H12.2357H11.6451ZM17.9053 15.4362L17.9041 15.2118C17.9 14.417 17.2015 13.7717 16.3469 13.7717H15.9878H11.6736L11.69 16.8764H16.3631C17.2177 16.8764 17.9095 16.23 17.9053 15.4362ZM19.2744 12.2623C20.1329 12.9979 20.6773 14.0463 20.6835 15.2118L20.6847 15.4363C20.6963 17.6551 18.7636 19.461 16.3765 19.461H16.2708L16.2769 20.6486H13.4975L13.4912 19.461H12.352L12.3583 20.6486H9.57882L9.57257 19.461H8.92375H7.5453L7.53173 16.8765H8.91018L8.89397 13.7717L8.88029 11.1861L8.86564 8.38998H7.4872L7.47363 5.80442H9.50091L9.49335 4.35129H12.2728L12.2804 5.80442H13.4197L13.412 4.35129H16.1916L16.1992 5.81658C18.3813 5.93971 20.1253 7.62345 20.1361 9.68181L20.1371 9.89423C20.1418 10.7862 19.8174 11.606 19.2744 12.2623Z" fill="white"/>
</g>
<defs>
<filter id="filter0_d_18_3434" x="0.193598" y="0.711271" width="27.7713" height="30.8574" filterUnits="userSpaceOnUse" color-interpolation-filters="sRGB">
<feFlood flood-opacity="0" result="BackgroundImageFix"/>
<feColorMatrix in="SourceAlpha" type="matrix" values="0 0 0 0 0 0 0 0 0 0 0 0 0 0 0 0 0 0 127 0" result="hardAlpha"/>
<feOffset dy="3.64002"/>
<feGaussianBlur stdDeviation="3.64002"/>
<feColorMatrix type="matrix" values="0 0 0 0 0 0 0 0 0 0 0 0 0 0 0 0 0 0 0.0744452 0"/>
<feBlend mode="normal" in2="BackgroundImageFix" result="effect1_dropShadow_18_3434"/>
<feBlend mode="normal" in="SourceGraphic" in2="effect1_dropShadow_18_3434" result="shape"/>
</filter>
</defs>
</svg>
