<svg width="56" height="44" viewBox="0 0 56 44" fill="none" xmlns="http://www.w3.org/2000/svg">
<g filter="url(#filter0_f_39_5)">
<ellipse rx="7.51977" ry="3.1377" transform="matrix(0.888871 0.458158 -0.512037 0.858963 31.5377 22.0795)" fill="url(#paint0_linear_39_5)"/>
</g>
<path d="M31.2371 22.7551C31.2371 22.7551 28.5184 17.5199 25.395 19.1335C22.2715 20.747 19.3596 20.7698 14.5878 15.8773C9.81601 10.9848 6.25861 20.718 1.05285 15.8773" stroke="url(#paint1_linear_39_5)" stroke-width="1.82001" stroke-linecap="round" stroke-linejoin="round"/>
<path d="M43.5112 18.1675L42.626 17.3443C42.3001 17.0412 41.7716 17.0412 41.4457 17.3443C41.1198 17.6474 41.1198 18.1388 41.4457 18.4418L42.3309 19.265L40 21.4324H45.8421V16L43.5112 18.1675Z" fill="#E3507A"/>
<defs>
<filter id="filter0_f_39_5" x="7.48413" y="0.527582" width="48.1072" height="43.1038" filterUnits="userSpaceOnUse" color-interpolation-filters="sRGB">
<feFlood flood-opacity="0" result="BackgroundImageFix"/>
<feBlend mode="normal" in="SourceGraphic" in2="BackgroundImageFix" result="shape"/>
<feGaussianBlur stdDeviation="8.58875" result="effect1_foregroundBlur_39_5"/>
</filter>
<linearGradient id="paint0_linear_39_5" x1="8.22155" y1="8.0477" x2="11.0326" y2="2.24089" gradientUnits="userSpaceOnUse">
<stop stop-color="#FF62B8" stop-opacity="0.01"/>
<stop offset="1" stop-color="#FE33D1"/>
</linearGradient>
<linearGradient id="paint1_linear_39_5" x1="12.5946" y1="12.2632" x2="18.0662" y2="27.4884" gradientUnits="userSpaceOnUse">
<stop stop-color="#A330FF" stop-opacity="0.01"/>
<stop offset="0.393247" stop-color="#BC3DCB"/>
<stop offset="1" stop-color="#E3507A"/>
</linearGradient>
</defs>
</svg>
