<svg width="21" height="22" viewBox="0 0 21 22" fill="none" xmlns="http://www.w3.org/2000/svg">
<path d="M10.2239 21.0835C15.8377 21.0835 20.3887 16.5325 20.3887 10.9185C20.3887 5.3045 15.8377 0.753479 10.2239 0.753479C4.61001 0.753479 0.059082 5.3045 0.059082 10.9185C0.059082 16.5325 4.61001 21.0835 10.2239 21.0835Z" fill="#6867BE"/>
<path fill-rule="evenodd" clip-rule="evenodd" d="M10.2239 19.7698C15.1122 19.7698 19.075 15.8069 19.075 10.9185C19.075 6.03006 15.1122 2.0672 10.2239 2.0672C5.33558 2.0672 1.3728 6.03006 1.3728 10.9185C1.3728 15.8069 5.33558 19.7698 10.2239 19.7698ZM10.2249 10.2736C9.02688 10.2736 7.91375 9.20129 6.08683 7.25469C5.84784 7.00001 5.86416 6.60314 6.12328 6.36827C6.38244 6.13337 6.78626 6.14941 7.02525 6.40409C8.50303 7.97871 9.58614 9.01899 10.2249 9.01899C10.8636 9.01899 11.9466 7.97871 13.4245 6.40409C13.6634 6.14945 14.0673 6.13337 14.3264 6.36827C14.5855 6.60318 14.6019 7.00001 14.3629 7.25469C12.536 9.20129 11.4228 10.2736 10.2249 10.2736ZM13.4235 15.4328C13.5493 15.5669 13.614 15.6349 13.7861 15.6348C14.3637 15.6815 14.7854 15.0422 14.3619 14.5822C12.535 12.6356 11.4218 11.5633 10.2239 11.5633C9.02589 11.5633 7.91276 12.6356 6.08584 14.5822C5.84685 14.8369 5.86317 15.2337 6.12229 15.4686C6.38145 15.7036 6.78526 15.6875 7.02426 15.4328C8.50208 13.8582 9.58515 12.8179 10.2239 12.8179C10.8626 12.8179 11.9457 13.8582 13.4235 15.4328Z" fill="#1C1A42"/>
</svg>
